<svg xmlns="http://www.w3.org/2000/svg" width="376.261" height="47.055" viewBox="0 0 376.261 47.055">
  <g id="グループ_53" data-name="グループ 53" transform="translate(-537.849 -1233)">
    <path id="thunder" d="M8.089,25.1a2.091,2.091,0,0,1,.065.834L5.527,48,16.453,15.212h-7.1c-.138,0-.266-.168-.338-.448A2.156,2.156,0,0,1,9,13.836L11.884,0H4.866L.453,24.719h7.32C7.9,24.719,8.015,24.86,8.089,25.1Zm0,0" transform="matrix(0.766, 0.643, -0.643, 0.766, 901.507, 1232.709)" fill="#de5d0b"/>
    <path id="thunder-2" data-name="thunder" d="M7.636,22.9a2.09,2.09,0,0,0,.065-.834L5.074,0,16,32.788H8.9c-.138,0-.266.168-.338.448a2.156,2.156,0,0,0-.018.927L11.431,48H4.413L0,23.281H7.32C7.444,23.281,7.562,23.14,7.636,22.9Zm0,0" transform="matrix(-0.766, 0.643, -0.643, -0.766, 580.96, 1269.77)" fill="#de5d0b"/>
  </g>
</svg>
