<?xml version="1.0" encoding="UTF-8" standalone="no"?>
<!DOCTYPE svg PUBLIC "-//W3C//DTD SVG 1.1//EN" "http://www.w3.org/Graphics/SVG/1.1/DTD/svg11.dtd">
<svg version="1.1" xmlns="http://www.w3.org/2000/svg" xmlns:xlink="http://www.w3.org/1999/xlink" preserveAspectRatio="xMidYMid meet" viewBox="12.828199397281434 7.884086619744451 301.773294824132 307.88319062419635" width="320" height="320"><defs><path d="M130.89 22.17C130.8 22.13 130.73 22.07 130.69 21.98C130.34 21.08 129.38 19.78 126.79 19.63C125.66 19.56 121.94 19.18 120.23 17.7C119.96 19.24 117.78 31.56 117.51 33.1C117.5 33.12 117.5 33.14 117.49 33.16C116.8 36.7 112.79 39.37 108.47 39.14C104.1 38.91 101.08 35.82 101.71 32.23C102.34 28.64 106.4 25.92 110.76 26.15C112.67 26.14 114.46 27.06 115.58 28.61C115.91 26.7 118.61 11.43 118.95 9.52C119.03 9.05 120.24 8.86 120.71 8.89C120.71 8.89 120.71 8.89 120.71 8.89C120.71 8.89 120.75 8.88 120.82 8.89C120.82 8.89 120.83 8.89 120.83 8.89C121.88 9.13 122.85 9.66 123.6 10.43C125.3 11.95 124.86 14.42 128.05 16.08C129.54 16.85 132.51 18.87 131.33 21.96C131.27 22.14 131.07 22.23 130.89 22.17Z" id="a8L1KUQE0"></path><path d="M37.88 108.74C37.78 108.74 37.69 108.7 37.63 108.63C36.99 107.9 35.65 107.01 33.16 107.76C32.08 108.08 28.45 108.99 26.34 108.19C26.61 109.73 28.78 122.05 29.06 123.59C29.06 123.61 29.06 123.63 29.06 123.66C29.62 127.21 26.77 131.1 22.63 132.36C18.45 133.64 14.55 131.77 13.92 128.19C13.28 124.6 16.16 120.65 20.34 119.37C22.13 118.71 24.13 118.96 25.7 120.03C25.37 118.13 22.67 102.85 22.33 100.94C22.25 100.47 23.32 99.89 23.77 99.75C23.77 99.75 23.77 99.75 23.77 99.75C23.77 99.75 23.81 99.73 23.88 99.71C23.88 99.71 23.88 99.71 23.88 99.71C24.95 99.57 26.04 99.74 27.01 100.21C29.13 101.05 29.56 103.52 33.13 103.99C34.79 104.2 38.27 105.08 38.23 108.39C38.23 108.58 38.07 108.74 37.88 108.74Z" id="e1w7ZNizNt"></path><path d="M310.89 22.17C310.8 22.13 310.73 22.07 310.69 21.98C310.34 21.08 309.38 19.78 306.79 19.63C305.66 19.56 301.94 19.18 300.23 17.7C299.96 19.24 297.78 31.56 297.51 33.1C297.5 33.12 297.5 33.14 297.49 33.16C296.8 36.7 292.79 39.37 288.47 39.14C284.1 38.91 281.08 35.82 281.71 32.23C282.34 28.64 286.4 25.92 290.76 26.15C292.67 26.14 294.46 27.06 295.58 28.61C295.91 26.7 298.61 11.43 298.95 9.52C299.03 9.05 300.24 8.86 300.71 8.89C300.71 8.89 300.71 8.89 300.71 8.89C300.71 8.89 300.75 8.88 300.82 8.89C300.82 8.89 300.83 8.89 300.83 8.89C301.88 9.13 302.85 9.66 303.6 10.43C305.3 11.95 304.86 14.42 308.05 16.08C309.54 16.85 312.51 18.87 311.33 21.96C311.27 22.14 311.07 22.23 310.89 22.17Z" id="b7OlkiLrkD"></path><path d="M205.11 99.68L205.26 99.7L205.41 99.72L205.56 99.74L205.71 99.77L205.86 99.8L206.01 99.84L206.15 99.88L206.3 99.92L206.44 99.97L206.59 100.02L206.73 100.08L206.87 100.14L207.01 100.21L207.3 100.34L207.57 100.49L207.83 100.66L208.07 100.84L208.3 101.04L208.53 101.24L208.74 101.46L208.96 101.68L209.18 101.9L209.41 102.13L209.64 102.35L209.89 102.57L210.15 102.78L210.43 102.99L210.73 103.18L211.05 103.36L211.4 103.53L211.78 103.68L212.19 103.8L212.64 103.91L213.13 103.99L213.38 104.02L213.65 104.07L213.94 104.13L214.24 104.2L214.55 104.28L214.88 104.38L215.2 104.49L215.53 104.62L215.85 104.77L216.16 104.94L216.47 105.13L216.76 105.34L217.04 105.57L217.29 105.83L217.53 106.11L217.73 106.42L217.91 106.75L218.05 107.12L218.15 107.51L218.21 107.93L218.23 108.39L218.23 108.42L218.22 108.44L218.22 108.47L218.21 108.5L218.2 108.52L218.19 108.54L218.18 108.57L218.17 108.59L218.15 108.61L218.13 108.63L218.12 108.64L218.1 108.66L218.08 108.68L218.05 108.69L218.03 108.7L218.01 108.71L217.98 108.72L217.96 108.73L217.93 108.73L217.91 108.73L217.88 108.74L217.87 108.74L217.85 108.73L217.84 108.73L217.83 108.73L217.81 108.73L217.8 108.73L217.79 108.72L217.77 108.72L217.76 108.71L217.75 108.71L217.74 108.7L217.72 108.7L217.71 108.69L217.7 108.69L217.69 108.68L217.68 108.67L217.67 108.66L217.66 108.65L217.65 108.65L217.64 108.64L217.63 108.63L217.53 108.52L217.43 108.42L217.31 108.31L217.18 108.21L217.05 108.1L216.9 108L216.74 107.91L216.57 107.82L216.39 107.74L216.19 107.67L215.98 107.61L215.76 107.56L215.53 107.51L215.28 107.49L215.02 107.47L214.75 107.48L214.46 107.49L214.15 107.53L213.84 107.59L213.5 107.66L213.16 107.76L212.98 107.81L212.78 107.86L212.55 107.92L212.29 107.99L212.01 108.06L211.7 108.12L211.38 108.19L211.04 108.26L210.68 108.32L210.32 108.37L209.95 108.42L209.57 108.46L209.19 108.49L208.8 108.51L208.42 108.51L208.05 108.5L207.68 108.48L207.32 108.44L206.98 108.37L206.65 108.29L206.34 108.19L209.06 123.59L209.06 123.6L209.06 123.61L209.06 123.63L209.06 123.63L209.06 123.64L209.06 123.65L209.06 123.65L209.06 123.66L209.12 124.17L209.13 124.68L209.1 125.19L209.03 125.7L208.91 126.21L208.76 126.72L208.56 127.21L208.33 127.7L208.07 128.18L207.77 128.64L207.44 129.09L207.08 129.52L206.68 129.94L206.26 130.33L205.81 130.71L205.34 131.05L204.84 131.38L204.32 131.67L203.78 131.93L203.21 132.17L202.63 132.36L202.04 132.53L201.45 132.65L200.87 132.72L200.29 132.76L199.73 132.76L199.19 132.72L198.65 132.65L198.14 132.53L197.65 132.39L197.17 132.2L196.72 131.99L196.3 131.74L195.9 131.46L195.53 131.15L195.19 130.81L194.88 130.44L194.61 130.04L194.38 129.61L194.18 129.16L194.03 128.69L193.92 128.19L193.85 127.67L193.83 127.15L193.85 126.63L193.92 126.12L194.03 125.6L194.18 125.09L194.37 124.59L194.6 124.1L194.86 123.61L195.16 123.14L195.49 122.69L195.85 122.25L196.25 121.83L196.67 121.43L197.12 121.05L197.6 120.7L198.1 120.37L198.63 120.08L199.18 119.81L199.75 119.58L200.34 119.37L200.59 119.29L200.85 119.21L201.11 119.15L201.38 119.09L201.64 119.05L201.91 119.03L202.17 119.01L202.44 119.01L202.7 119.02L202.97 119.04L203.23 119.07L203.49 119.11L203.75 119.17L204.01 119.24L204.26 119.32L204.51 119.41L204.76 119.51L205 119.62L205.24 119.75L205.47 119.89L205.7 120.03L202.33 100.94L202.33 100.88L202.34 100.81L202.36 100.74L202.4 100.67L202.44 100.6L202.5 100.52L202.57 100.45L202.64 100.39L202.72 100.32L202.81 100.25L202.9 100.19L202.99 100.13L203.08 100.07L203.18 100.01L203.27 99.96L203.36 99.91L203.46 99.87L203.54 99.83L203.62 99.8L203.7 99.77L203.77 99.75L203.77 99.74L203.78 99.74L203.78 99.74L203.79 99.73L203.8 99.73L203.8 99.73L203.82 99.73L203.82 99.72L203.83 99.72L203.84 99.72L203.85 99.72L203.86 99.72L203.87 99.72L203.88 99.71L204.04 99.69L204.19 99.68L204.34 99.67L204.5 99.66L204.65 99.66L204.8 99.67L204.95 99.67L204.95 99.67L205.11 99.68Z" id="a12FUYxK4p"></path><path d="M130.89 202.17C130.8 202.13 130.73 202.07 130.69 201.98C130.34 201.08 129.38 199.78 126.79 199.63C125.66 199.56 121.94 199.18 120.23 197.7C119.96 199.24 117.78 211.56 117.51 213.1C117.5 213.12 117.5 213.14 117.49 213.16C116.8 216.7 112.79 219.37 108.47 219.14C104.1 218.91 101.08 215.82 101.71 212.23C102.34 208.64 106.4 205.92 110.76 206.15C112.67 206.14 114.46 207.06 115.58 208.61C115.91 206.7 118.61 191.43 118.95 189.52C119.03 189.05 120.24 188.86 120.71 188.89C120.71 188.89 120.71 188.89 120.71 188.89C120.71 188.89 120.75 188.88 120.82 188.89C120.82 188.89 120.83 188.89 120.83 188.89C121.88 189.13 122.85 189.66 123.6 190.43C125.3 191.95 124.86 194.42 128.05 196.08C129.54 196.85 132.51 198.87 131.33 201.96C131.27 202.14 131.07 202.23 130.89 202.17Z" id="a3Plr0QfNa"></path><path d="M37.88 288.74C37.78 288.74 37.69 288.7 37.63 288.63C36.99 287.9 35.65 287.01 33.16 287.76C32.08 288.08 28.45 288.99 26.34 288.19C26.61 289.73 28.78 302.05 29.06 303.59C29.06 303.61 29.06 303.63 29.06 303.66C29.62 307.21 26.77 311.1 22.63 312.36C18.45 313.64 14.55 311.77 13.92 308.19C13.28 304.6 16.16 300.65 20.34 299.37C22.13 298.71 24.13 298.96 25.7 300.03C25.37 298.13 22.67 282.85 22.33 280.94C22.25 280.47 23.32 279.89 23.77 279.75C23.77 279.75 23.77 279.75 23.77 279.75C23.77 279.75 23.81 279.73 23.88 279.71C23.88 279.71 23.88 279.71 23.88 279.71C24.95 279.57 26.04 279.74 27.01 280.21C29.13 281.05 29.56 283.52 33.13 283.99C34.79 284.2 38.27 285.08 38.23 288.39C38.23 288.58 38.07 288.74 37.88 288.74Z" id="f5qNFEsQ90"></path><path d="M310.89 202.17C310.8 202.13 310.73 202.07 310.69 201.98C310.34 201.08 309.38 199.78 306.79 199.63C305.66 199.56 301.94 199.18 300.23 197.7C299.96 199.24 297.78 211.56 297.51 213.1C297.5 213.12 297.5 213.14 297.49 213.16C296.8 216.7 292.79 219.37 288.47 219.14C284.1 218.91 281.08 215.82 281.71 212.23C282.34 208.64 286.4 205.92 290.76 206.15C292.67 206.14 294.46 207.06 295.58 208.61C295.91 206.7 298.61 191.43 298.95 189.52C299.03 189.05 300.24 188.86 300.71 188.89C300.71 188.89 300.71 188.89 300.71 188.89C300.71 188.89 300.75 188.88 300.82 188.89C300.82 188.89 300.83 188.89 300.83 188.89C301.88 189.13 302.85 189.66 303.6 190.43C305.3 191.95 304.86 194.42 308.05 196.08C309.54 196.85 312.51 198.87 311.33 201.96C311.27 202.14 311.07 202.23 310.89 202.17Z" id="b15tIksNd5"></path><path d="M217.88 288.74C217.78 288.74 217.69 288.7 217.63 288.63C216.99 287.9 215.65 287.01 213.16 287.76C212.08 288.08 208.45 288.99 206.34 288.19C206.61 289.73 208.78 302.05 209.06 303.59C209.06 303.61 209.06 303.63 209.06 303.66C209.62 307.21 206.77 311.1 202.63 312.36C198.45 313.64 194.55 311.77 193.92 308.19C193.28 304.6 196.16 300.65 200.34 299.37C202.13 298.71 204.13 298.96 205.7 300.03C205.37 298.13 202.67 282.85 202.33 280.94C202.25 280.47 203.32 279.89 203.76 279.75C203.76 279.75 203.76 279.75 203.76 279.75C203.76 279.75 203.81 279.73 203.87 279.71C203.88 279.71 203.88 279.71 203.88 279.71C204.95 279.57 206.04 279.74 207.01 280.21C209.13 281.05 209.56 283.52 213.13 283.99C214.79 284.2 218.27 285.08 218.23 288.39C218.23 288.58 218.07 288.74 217.88 288.74Z" id="h1qNdNhFGe"></path></defs><g><g><use xlink:href="#a8L1KUQE0" opacity="1" fill="#e2dbbf" fill-opacity="1"></use><g><use xlink:href="#a8L1KUQE0" opacity="1" fill-opacity="0" stroke="#000000" stroke-width="1" stroke-opacity="0"></use></g></g><g><use xlink:href="#e1w7ZNizNt" opacity="1" fill="#e2dbbf" fill-opacity="1"></use><g><use xlink:href="#e1w7ZNizNt" opacity="1" fill-opacity="0" stroke="#000000" stroke-width="1" stroke-opacity="0"></use></g></g><g><use xlink:href="#b7OlkiLrkD" opacity="1" fill="#e2dbbf" fill-opacity="1"></use><g><use xlink:href="#b7OlkiLrkD" opacity="1" fill-opacity="0" stroke="#000000" stroke-width="1" stroke-opacity="0"></use></g></g><g><use xlink:href="#a12FUYxK4p" opacity="1" fill="#e2dbbf" fill-opacity="1"></use><g><use xlink:href="#a12FUYxK4p" opacity="1" fill-opacity="0" stroke="#000000" stroke-width="1" stroke-opacity="0"></use></g></g><g><use xlink:href="#a3Plr0QfNa" opacity="1" fill="#e2dbbf" fill-opacity="1"></use><g><use xlink:href="#a3Plr0QfNa" opacity="1" fill-opacity="0" stroke="#000000" stroke-width="1" stroke-opacity="0"></use></g></g><g><use xlink:href="#f5qNFEsQ90" opacity="1" fill="#e2dbbf" fill-opacity="1"></use><g><use xlink:href="#f5qNFEsQ90" opacity="1" fill-opacity="0" stroke="#000000" stroke-width="1" stroke-opacity="0"></use></g></g><g><use xlink:href="#b15tIksNd5" opacity="1" fill="#e2dbbf" fill-opacity="1"></use><g><use xlink:href="#b15tIksNd5" opacity="1" fill-opacity="0" stroke="#000000" stroke-width="1" stroke-opacity="0"></use></g></g><g><use xlink:href="#h1qNdNhFGe" opacity="1" fill="#e2dbbf" fill-opacity="1"></use><g><use xlink:href="#h1qNdNhFGe" opacity="1" fill-opacity="0" stroke="#000000" stroke-width="1" stroke-opacity="0"></use></g></g></g></svg>