<svg id="snsicon_line" data-name="snsicon/line" xmlns="http://www.w3.org/2000/svg" width="40" height="40" viewBox="0 0 40 40">
  <g id="Line">
    <path id="パス_384" data-name="パス 384" d="M0,20A20,20,0,1,1,20,40,20,20,0,0,1,0,20Z" fill="#40332e" fill-rule="evenodd"/>
    <path id="前面オブジェクトで型抜き_3" data-name="前面オブジェクトで型抜き 3" d="M518.655,356.333a.411.411,0,0,1-.333-.129.9.9,0,0,1-.062-.679l0-.026c.031-.185.175-1.048.175-1.048a2.343,2.343,0,0,0-.04-1.107c-.135-.335-.665-.513-1.086-.6a13.263,13.263,0,0,1-7.38-3.351A8.9,8.9,0,0,1,507,342.937c0-5.479,5.533-9.937,12.334-9.937s12.334,4.458,12.334,9.937a8.859,8.859,0,0,1-2.643,6.113,39.434,39.434,0,0,1-9.69,7.109A1.873,1.873,0,0,1,518.655,356.333Zm5.255-16a.244.244,0,0,0-.169.069l-.006.007a.245.245,0,0,0-.068.17v5.507a.248.248,0,0,0,.068.17l.006.006a.245.245,0,0,0,.169.07h3.513a.246.246,0,0,0,.244-.247V345.2a.246.246,0,0,0-.244-.247h-2.389v-.931h2.389a.245.245,0,0,0,.244-.246v-.887a.246.246,0,0,0-.244-.247h-2.389v-.931h2.389a.246.246,0,0,0,.244-.247v-.887a.246.246,0,0,0-.244-.247H523.91Zm-4.84,2.482,0,0,2.57,3.411a.252.252,0,0,0,.063.061l.014.008.009.005.015.007.007,0,.006,0,.006,0,.017.005a.269.269,0,0,0,.068.01h.9a.249.249,0,0,0,.251-.246v-5.509a.249.249,0,0,0-.251-.246h-.9a.249.249,0,0,0-.251.246v3.272l-2.569-3.409-.012-.016-.006-.008-.007-.007-.01-.01,0,0-.013-.011-.005,0-.01-.007,0,0-.008,0-.013-.007-.008,0-.014-.006-.006,0-.006,0-.012,0-.009,0-.014,0-.01,0h-.938a.248.248,0,0,0-.25.246v5.509a.248.248,0,0,0,.25.246h.9a.248.248,0,0,0,.25-.246v-3.272Zm-3.165-2.482a.242.242,0,0,0-.238.246v5.509a.242.242,0,0,0,.238.246h.858a.242.242,0,0,0,.238-.246v-5.509a.242.242,0,0,0-.238-.246Zm-4.66,0a.246.246,0,0,0-.245.247v5.507a.245.245,0,0,0,.068.17h0l0,0a.242.242,0,0,0,.172.073h3.513a.246.246,0,0,0,.244-.247V345.2a.246.246,0,0,0-.244-.247h-2.389V340.58a.246.246,0,0,0-.244-.247Z" transform="translate(-499 -323.667)" fill="#fff"/>
  </g>
</svg>
