<svg id="snsicon_tw" data-name="snsicon/tw" xmlns="http://www.w3.org/2000/svg" width="40" height="40" viewBox="0 0 40 40">
  <path id="前面オブジェクトで型抜き_1" data-name="前面オブジェクトで型抜き 1" d="M579,373a19.939,19.939,0,1,1,7.785-1.572A19.874,19.874,0,0,1,579,373Zm-9.347-22.207c-.022,0-.035,0-.04.011a5.117,5.117,0,0,0,.513,1.928,4.588,4.588,0,0,0,1.953,1.841l.7.331-.827.014c-.512,0-.7.007-.754.083-.036.048-.018.124.013.234a4.3,4.3,0,0,0,2.665,2.36l.884.3-.769.461a8.082,8.082,0,0,1-3.82,1.065,4.246,4.246,0,0,0-1.169.115,10.779,10.779,0,0,0,2.75,1.266,11.519,11.519,0,0,0,3.395.5,11.877,11.877,0,0,0,5.954-1.561,12.453,12.453,0,0,0,4.747-5.583,14.919,14.919,0,0,0,.968-4.316c0-.666.047-.753.841-1.54a9.336,9.336,0,0,0,1-1.108c.052-.1.084-.163.067-.192-.007-.011-.022-.017-.046-.017a3.245,3.245,0,0,0-.619.18,4,4,0,0,1-1,.278c-.064,0-.1-.015-.114-.045-.031-.07.071-.227.329-.507a4.184,4.184,0,0,0,.969-1.539c0-.008-.008-.013-.024-.013a1.42,1.42,0,0,0-.433.171,8,8,0,0,1-1.254.489l-.77.245-.7-.475a5.8,5.8,0,0,0-1.211-.633,4.433,4.433,0,0,0-1.139-.135,4.324,4.324,0,0,0-1.355.192,4.109,4.109,0,0,0-2.779,4.144l.042.7-.713-.085a11.623,11.623,0,0,1-6.783-3.338l-.941-.935-.243.69a4.165,4.165,0,0,0,.884,4.259c.258.273.364.432.334.5-.012.028-.047.042-.105.042a2.889,2.889,0,0,1-.771-.213A2.9,2.9,0,0,0,569.653,350.792Z" transform="translate(-559 -333)" fill="#40332e"/>
</svg>
